<svg xmlns="http://www.w3.org/2000/svg" viewBox="0 0 68 60">
	<ellipse fill="#41ad49" cx="41" cy="47.2" rx="3" ry="2.8"/>
	<path fill="#41ad49" d="M37 26.5c-5.7 1-8.7-8.5 1-8.5 8.2 0 9.8 14.8-4 15 0 16 22.2 8.2 22-5 0-5.4-3.7-17-18-17-22.2 0-16.4 24.4-1 15.5z"/>
	<path fill="#444" d="M6 28S0 41.3 0 50l.5 3C9.5 19.7 16 32.6 24 31 7.3 16.2 27.3 4 40 4c20.4 0 34 25.5 16 40 13.4-7 12-18.4 12-20 0-5.6-5.3-24-28-24-11.7 0-22.2 5.8-25 15-11.2-.5-11 7.6-9 13zm30 24c-2 1.2-6.4-1-8 2 1.6-.3 3-.8 5 .2-1 1.8-7 2.2-8 4.8 3.4-1.6 6-.4 10-3-.3 1.2-.6 3 0 4 .5-1.2 1.5-2.3 2-3 4.4-2 5.4-1.5 8-2.5 2-.5 2.8-.4 3 0 4 3.4 2.8 3.3 4.5 4.5-.3-2-.7-2-1-3 2 .5 2 2.4 3.5 3-.4-4.6-3.7-7.5-6-7-3-1.2-6.3.5-8 1.6-3-1.7-3.3-1.7-5-1.6z"/>
</svg>